<?xml version="1.0" standalone="no"?>
<!DOCTYPE svg PUBLIC "-//W3C//DTD SVG 20010904//EN"
 "http://www.w3.org/TR/2001/REC-SVG-20010904/DTD/svg10.dtd">
<svg version="1.0" xmlns="http://www.w3.org/2000/svg"
 width="768.000000pt" height="576.000000pt" viewBox="0 0 768.000000 576.000000"
 preserveAspectRatio="xMidYMid meet">

<g transform="translate(0.000000,576.000000) scale(0.100000,-0.100000)"
fill="#000000" stroke="none">
<path d="M2780 5743 c0 -10 -223 -1307 -225 -1311 -1 -1 -120 63 -265 143
-145 80 -265 143 -268 141 -2 -3 69 -158 157 -347 89 -188 160 -343 159 -344
-2 -1 -383 132 -848 295 -465 164 -846 296 -848 295 -2 -2 93 -142 210 -312
118 -169 217 -313 221 -319 4 -7 -40 -35 -116 -73 -181 -91 -258 -147 -274
-196 -7 -22 -35 -278 -62 -569 -28 -291 -52 -531 -55 -533 -4 -4 -110 -49
-484 -205 -41 -17 -70 -34 -65 -38 4 -4 120 -49 257 -100 l248 -93 -6 -69 c-4
-37 -15 -115 -25 -173 l-18 -106 71 -46 c102 -65 181 -128 258 -201 60 -58 73
-65 115 -69 46 -5 53 -2 173 77 69 46 181 125 249 178 l124 95 175 -49 175
-49 214 -705 c118 -388 218 -709 222 -713 4 -4 163 249 352 562 189 314 347
570 350 571 4 0 249 -333 545 -739 400 -548 542 -736 550 -728 6 7 201 306
434 665 233 359 427 651 431 650 4 -2 209 -221 454 -488 246 -267 453 -491
459 -498 11 -11 31 96 105 550 51 310 95 572 99 584 7 20 22 18 780 -131 424
-83 772 -148 772 -145 0 3 -89 130 -199 281 l-198 274 104 5 104 5 -141 168
c-118 141 -140 173 -140 200 0 85 -82 212 -154 238 l-32 12 83 244 c112 330
188 531 365 968 179 440 259 647 253 653 -2 2 -27 -1 -56 -7 -28 -6 -54 -10
-56 -7 -4 4 34 68 132 220 l38 59 -34 -20 c-455 -274 -1243 -743 -1245 -740
-5 4 40 289 60 386 9 41 15 76 13 77 -1 1 -26 -6 -55 -16 l-53 -17 7 21 c4 11
96 268 205 570 109 303 198 551 196 552 -1 1 -210 -163 -465 -363 -255 -201
-465 -363 -468 -361 -2 3 -18 106 -36 229 -17 123 -34 227 -37 231 -4 5 -553
-713 -593 -775 -4 -6 -9 -9 -12 -6 -3 3 -122 334 -265 735 -143 401 -263 728
-266 727 -4 -1 -78 -171 -164 -377 -85 -207 -158 -376 -162 -376 -3 0 -64 133
-135 295 -71 162 -131 295 -134 295 -3 0 -86 -235 -184 -521 -168 -488 -181
-520 -195 -502 -9 11 -207 283 -441 606 -234 322 -428 586 -432 587 -5 0 -8
-3 -8 -7z m4553 -2005 c-211 -528 -317 -802 -387 -1008 -31 -90 -58 -165 -60
-167 -1 -1 -37 -9 -79 -17 -42 -8 -98 -24 -123 -36 -26 -11 -49 -19 -51 -17
-5 6 36 323 68 517 33 198 99 528 152 754 l32 140 205 92 c203 91 360 152 392
153 12 1 -21 -91 -149 -411z m-967 345 c-12 -40 -37 -203 -50 -336 -33 -313
-40 -554 -41 -1257 l0 -705 -215 -81 c-118 -45 -222 -84 -231 -88 -14 -6 -17
8 -22 106 -15 256 -6 570 33 1157 11 162 18 296 16 298 -6 6 -67 -169 -107
-311 -50 -178 -101 -416 -138 -647 -26 -160 -61 -408 -61 -431 0 -4 -30 -8
-67 -8 -49 0 -85 -7 -128 -25 -33 -14 -63 -25 -67 -25 -5 0 -8 213 -8 473 0
427 -6 615 -26 852 -8 96 -11 91 -58 -122 -72 -323 -114 -618 -124 -872 l-7
-164 -95 -32 c-118 -40 -170 -66 -220 -111 l-39 -35 -15 23 c-87 137 -70 572
45 1143 38 191 157 676 196 798 l18 58 175 78 c96 42 242 111 323 153 144 74
148 75 143 50 -29 -148 -62 -428 -77 -652 -11 -178 -6 -447 9 -462 4 -4 41
115 81 265 75 276 130 457 182 603 34 93 12 78 305 204 99 43 198 87 220 98
48 26 57 27 50 5z m-4843 -158 c117 -30 197 -92 218 -167 18 -66 -2 -175 -50
-273 -30 -59 -71 -115 -159 -215 -66 -74 -119 -136 -118 -137 0 0 35 6 76 14
139 27 257 -2 305 -76 43 -65 58 -150 52 -301 -11 -294 -112 -499 -365 -741
-60 -58 -164 -147 -231 -199 -115 -89 -281 -206 -309 -217 -7 -3 -36 15 -66
41 -30 25 -98 75 -153 110 -148 97 -134 78 -118 171 40 219 77 546 140 1220
25 270 47 504 50 520 4 26 18 39 93 82 125 75 269 140 354 163 89 23 204 25
281 5z m1400 -15 c151 -57 246 -217 288 -485 16 -97 15 -572 -1 -720 -44 -401
-190 -712 -403 -857 -154 -104 -368 -133 -506 -66 -63 30 -169 138 -219 224
-166 286 -191 593 -86 1064 114 510 355 812 689 864 60 9 182 -3 238 -24z
m1376 1 c152 -57 248 -216 287 -471 17 -115 19 -557 3 -711 -31 -308 -116
-556 -249 -732 -123 -163 -292 -249 -490 -250 -114 0 -180 25 -262 101 -159
147 -262 400 -275 672 -7 146 6 274 48 485 122 613 416 951 810 930 42 -2 100
-13 128 -24z m2619 -1648 c66 -40 95 -99 87 -173 -12 -112 -104 -239 -215
-295 -72 -36 -174 -41 -217 -9 -73 52 -101 206 -55 307 28 63 112 150 176 182
69 36 155 31 224 -12z"/>
<path d="M1163 3653 l-33 -4 0 -252 1 -252 25 30 c135 161 204 284 204 365 0
51 -16 85 -48 100 -30 13 -102 20 -149 13z"/>
<path d="M1173 2868 c-37 -8 -43 -13 -47 -41 -10 -56 -46 -647 -40 -647 8 0
229 266 259 311 73 110 82 207 27 287 -52 77 -117 106 -199 90z"/>
<path d="M2655 3602 c-115 -84 -227 -412 -281 -822 -36 -273 14 -525 123 -621
19 -16 41 -29 50 -29 34 0 100 85 133 171 70 183 100 392 107 770 8 392 -13
548 -72 557 -12 2 -39 -10 -60 -26z"/>
<path d="M4043 3610 c-82 -50 -156 -206 -223 -470 -71 -283 -95 -539 -66 -710
27 -157 109 -300 173 -300 28 0 79 60 114 135 92 199 137 545 126 985 -9 351
-31 417 -124 360z"/>
</g>
</svg>
